<svg id="Capa_1" enable-background="new 0 0 513.307 513.307" height="512" viewBox="0 0 513.307 513.307" width="512" xmlns="http://www.w3.org/2000/svg"><g><path d="m118.356 340.559c-3.467-2.267-8.115-1.296-10.382 2.171-2.268 3.466-1.296 8.114 2.171 10.382 9.588 6.272 16.138 8.142 24.595 8.618v8.111c0 4.143 3.357 7.5 7.5 7.5s7.5-3.357 7.5-7.5v-8.707c16.827-3.301 26.656-17.177 28.834-30.138 2.802-16.663-5.915-31.151-22.206-36.91-2.178-.77-4.406-1.578-6.628-2.418v-36.145c6.57.862 10.664 3.5 11 3.724 3.394 2.323 8.032 1.483 10.391-1.897 2.37-3.397 1.536-8.072-1.861-10.441-.447-.312-7.898-5.388-19.529-6.45v-6.765c0-4.143-3.357-7.5-7.5-7.5s-7.5 3.357-7.5 7.5v7.803c-1.116.254-2.246.543-3.397.89-10.729 3.232-18.745 12.413-20.921 23.961-1.984 10.53 1.389 20.684 8.804 26.5 3.929 3.082 8.818 5.904 15.515 8.885v44.971c-5.789-.429-9.811-1.846-16.386-6.145zm10.126-59.515c-2.991-2.346-4.264-6.913-3.32-11.919.845-4.485 3.806-9.874 9.578-12.053v27.971c-2.355-1.277-4.485-2.609-6.258-3.999zm22.886 27.184c13.859 4.898 13.006 16.762 12.414 20.281-1.154 6.866-5.936 14.144-14.042 17.044v-37.908c.541.193 1.071.385 1.628.583z"/><path d="m505.807 181.185c4.143 0 7.5-3.357 7.5-7.5v-89.993c0-8.307-6.758-15.064-15.064-15.064h-65.029c-8.306 0-15.063 6.758-15.063 15.064v4.714l-103.343-3.62c-4.148-.163-7.612 3.093-7.758 7.232s3.093 7.613 7.232 7.758l103.868 3.639v95.84c-5.43.611-17.682-2.675-28.598 7.425l-53.918 49.89c-32.671 30.23-64.757 32.264-100.255 45.547-.092.029-.184.061-.274.094-6.794 2.463-14.439-.245-18.175-6.448-4.081-6.778-2.018-15.787 4.699-20.51.044-.031.088-.062.132-.095l73.305-53.965c20.083-14.197 18.783-44.443-2.484-56.85l-24.038-14.022c-10.114-5.899-22.798-6.113-33.102-.557l-37.352 20.135c-12.066-5.06-24.648-8.396-37.593-9.977l27.787-27.819c22.441-22.468 53.525-34.767 85.235-33.753l10.774.377c.09.004.179.005.268.005 4.021 0 7.349-3.188 7.49-7.237.146-4.14-3.094-7.613-7.232-7.758l-10.797-.378c-35.868-1.143-70.988 12.753-96.352 38.145l-37.342 37.383c-77.613 1.384-140.328 64.941-140.328 142.88 0 29.69 9.025 58.165 26.099 82.344 1.462 2.069 3.779 3.175 6.134 3.175 1.495 0 3.005-.446 4.319-1.374 3.384-2.39 4.189-7.069 1.801-10.453-15.278-21.636-23.353-47.117-23.353-73.692 0-73.192 61.943-132.727 136.963-127.584 40.841 2.907 78.079 25.345 99.744 60.304l-38.777 28.547c-13.07 9.243-16.959 27.001-8.85 40.468 7.406 12.298 22.531 17.672 35.995 12.862l30.649-9.8c-2.532 68.317-58.888 123.116-127.813 123.116-31.744 0-62.188-11.714-85.726-32.982-3.071-2.776-7.814-2.537-10.593.536-2.777 3.073-2.537 7.815.536 10.593 26.299 23.766 60.314 36.854 95.782 36.854 78.595 0 142.912-63.893 142.912-142.943 1.874-.821 31.827-8.088 59.999-34.155l53.918-49.89c5.516-5.104 11.547-2.912 18.41-3.435v15.455c0 8.307 6.758 15.064 15.063 15.064h65.029c8.307 0 15.064-6.758 15.064-15.064v-26.039c0-4.143-3.357-7.5-7.5-7.5s-7.5 3.357-7.5 7.5l-.064 26.104-65.093-.064.063-146.083 65.094.064v89.992c.002 4.14 3.359 7.498 7.502 7.498zm-291.339-3.074 28.091-15.144c5.738-3.093 12.797-2.974 18.426.311l24.038 14.022c11.812 6.89 12.648 23.723 1.343 31.673-.044.031-.088.062-.132.095l-22.418 16.504c-12.53-19.842-29.568-36.014-49.348-47.461z"/></g></svg>