<?xml version="1.0" encoding="UTF-8" standalone="no"?>
<svg
   version="1.1"
   viewBox="0.00 0.00 609.00 609.00"
   id="svg82"
   sodipodi:docname="logoaplo.svg"
   inkscape:version="1.3 (1:1.3+202307231459+0e150ed6c4)"
   xmlns:inkscape="http://www.inkscape.org/namespaces/inkscape"
   xmlns:sodipodi="http://sodipodi.sourceforge.net/DTD/sodipodi-0.dtd"
   xmlns:xlink="http://www.w3.org/1999/xlink"
   xmlns="http://www.w3.org/2000/svg"
   xmlns:svg="http://www.w3.org/2000/svg">
  <defs
     id="defs82">
    <linearGradient
       id="linearGradient89"
       inkscape:collect="always">
      <stop
         style="stop-color:#030310;stop-opacity:1;"
         offset="0"
         id="stop89" />
      <stop
         style="stop-color:#128dcd;stop-opacity:1;"
         offset="0.7254613"
         id="stop90" />
    </linearGradient>
    <linearGradient
       inkscape:collect="always"
       xlink:href="#linearGradient89"
       id="linearGradient90"
       x1="92.058403"
       y1="485.16284"
       x2="570.96655"
       y2="29.011843"
       gradientUnits="userSpaceOnUse" />
  </defs>
  <sodipodi:namedview
     id="namedview82"
     pagecolor="#ffffff"
     bordercolor="#000000"
     borderopacity="0.25"
     inkscape:showpageshadow="2"
     inkscape:pageopacity="0.0"
     inkscape:pagecheckerboard="0"
     inkscape:deskcolor="#d1d1d1"
     inkscape:zoom="1.3399015"
     inkscape:cx="304.12684"
     inkscape:cy="304.5"
     inkscape:window-width="1846"
     inkscape:window-height="1016"
     inkscape:window-x="74"
     inkscape:window-y="27"
     inkscape:window-maximized="1"
     inkscape:current-layer="svg82" />
  <ellipse
     style="fill:url(#linearGradient90);stroke-width:0.988;fill-opacity:1;stroke-dasharray:none;stroke:none"
     id="path85"
     cx="304.65073"
     cy="302.11188"
     rx="289.82648"
     ry="285.93732" />
  <path
     fill="#ffffff"
     d="   M 404.23 198.01   L 404.21 251.01   L 404.17 365.27   Q 404.17 365.83 403.61 365.83   L 378.74 365.82   L 369.30 365.87   A 0.50 0.49 0.6 0 1 368.80 365.37   L 368.95 343.50   L 368.76 204.77   L 368.84 189.34   Q 368.84 188.77 369.38 188.59   L 390.27 181.65   L 403.50 177.29   Q 404.16 177.07 404.16 177.76   L 404.23 198.01   Z"
     id="path66"
     inkscape:label="l" />
  <!-- <path fill="#ffffff" d="
  M 251.96 232.71
  Q 268.14 223.87 288.38 224.17
  C 331.01 226.21 361.89 262.37 356.29 305.13
  Q 352.63 330.69 332.95 348.23
  Q 309.52 368.73 277.73 365.29
  Q 263.72 363.92 251.35 356.93
  A 0.40 0.40 0.0 0 0 250.75 357.28
  L 250.75 400.75
  Q 250.75 401.25 250.28 401.40
  L 236.44 406.04
  L 216.28 412.80
  Q 215.24 413.14 215.24 412.06
  L 215.24 357.01
  L 215.27 299.32
  L 215.27 224.66
  Q 215.27 224.13 215.77 224.30
  L 247.47 234.86
  Q 247.97 235.03 248.43 234.76
  L 251.96 232.71
  Z
  M 270.16 263.36
  Q 251.16 274.38 250.92 294.72
  C 250.60 322.32 280.56 339.39 304.31 325.30
  Q 311.55 321.00 315.89 314.23
  C 334.68 282.77 303.11 248.26 270.16 263.36
  Z"
/> -->
  <path
     fill="#ffffff"
     d="   M 557.29 303.00   Q 555.13 323.42 542.26 339.21   Q 532.46 351.63 516.86 359.50   Q 491.81 370.40 465.69 362.62   C 425.35 350.62 406.61 306.72 421.05 268.18   Q 427.91 252.24 441.25 240.88   Q 454.82 229.24 471.81 225.67   Q 512.96 218.37 539.69 247.81   Q 560.55 270.79 557.29 303.00   Z   M 475.23 261.51   C 460.70 267.20 451.52 279.76 451.61 295.43   C 451.82 330.35 496.90 343.07 516.36 314.53   C 527.11 299.10 522.57 278.44 509.08 267.42   Q 494.60 255.61 475.23 261.51   Z"
     id="path69"
     style="fill:#ffffff"
     inkscape:label="o" />
  <!-- <path fill="#ffffff" d="
  M 191.81 271.05
  L 180.50 295.16
  Q 180.28 295.63 180.48 296.10
  L 194.91 330.77
  L 204.22 353.12
  A 0.78 0.78 0.0 0 1 204.02 354.00
  L 190.22 366.41
  Q 189.71 366.87 189.05 366.72
  L 149.73 357.99
  Q 149.22 357.88 148.76 358.14
  L 142.39 361.83
  Q 134.14 366.92 126.48 367.25
  Q 87.88 368.93 64.66 338.82
  C 48.54 317.90 46.67 289.27 57.24 265.55
  Q 65.62 249.00 80.62 238.08
  C 103.62 221.30 134.81 221.05 159.02 235.21
  Q 160.87 236.29 163.56 234.70
  L 190.85 224.89
  Q 191.32 224.72 191.64 225.10
  L 205.33 241.22
  A 0.87 0.86 38.0 0 1 205.45 242.15
  L 191.81 271.05
  Z
  M 157.33 296.21
  A 35.55 35.55 0.0 0 0 121.78 260.66
  A 35.55 35.55 0.0 0 0 86.23 296.21
  A 35.55 35.55 0.0 0 0 121.78 331.76
  A 35.55 35.55 0.0 0 0 157.33 296.21
  Z"
/> -->
  <path
     style="fill:#ffffff;stroke-width:0.746324"
     d="m 112.69485,365.64162 c -16.568132,-2.26051 -29.729206,-9.03006 -41.422275,-21.30604 -9.12077,-9.57546 -14.24688,-18.67975 -17.596711,-31.25286 -2.135406,-8.01494 -1.967007,-26.16806 0.321296,-34.63518 4.551117,-16.83994 14.774992,-30.89299 29.71383,-40.84265 20.70529,-13.79026 47.51961,-15.13691 70.57277,-3.54425 2.76048,1.38816 5.56061,2.52392 6.22253,2.52392 0.6619,0 7.80265,-2.37321 15.86833,-5.27381 14.06666,-5.05868 14.71091,-5.21754 15.79402,-3.8944 0.62103,0.75867 3.60939,4.31825 6.64078,7.91018 l 5.51162,6.53079 -12.41511,26.35414 c -6.82831,14.49477 -12.41512,26.84983 -12.41512,27.45569 0,0.60586 5.20561,13.58388 11.56801,28.84004 6.36241,15.25617 11.56802,28.04227 11.56802,28.41356 0,0.3713 -2.97826,3.39404 -6.61835,6.71721 l -6.61836,6.04214 -20.21119,-4.51076 -20.2112,-4.51076 -5.86486,3.38285 c -3.22568,1.86057 -7.35694,3.9159 -9.18056,4.5674 -4.13446,1.47705 -14.33412,1.9733 -21.22747,1.03279 z m 16.13067,-33.52675 c 18.82007,-3.48971 32.25496,-22.70637 29.06279,-41.57014 -3.07768,-18.18728 -17.95168,-30.84606 -36.2078,-30.81528 -12.64717,0.0213 -23.840269,6.26918 -31.031814,17.32162 -4.009188,6.16158 -5.441967,12.17997 -5.07496,21.31736 0.279556,6.96015 0.506892,7.87502 3.415431,13.74469 7.52935,15.19486 23.234163,23.08022 39.836353,20.00175 z"
     id="path83"
     inkscape:label="a" />
  <path
     style="fill:#ffffff;stroke-width:0.746324"
     d="m 216.06066,318.37118 v -92.85309 l 15.91884,5.29366 15.91883,5.29366 7.03062,-3.45648 c 10.92373,-5.37047 17.50162,-6.82298 30.91296,-6.82613 11.52289,-0.003 15.4768,0.64818 24.84976,4.09063 20.29818,7.45503 35.75071,24.19932 42.46148,46.0111 1.85673,6.03485 2.01797,7.57269 2.01797,19.24643 0,11.67641 -0.16096,13.21068 -2.01976,19.2526 -8.45414,27.4797 -31.25092,46.6958 -59.01704,49.74725 -12.87306,1.41473 -28.25777,-1.1291 -38.68028,-6.39568 -6.21559,-3.14079 -5.80882,-4.57193 -5.80882,20.43703 v 22.21583 l -16.25079,5.39814 c -8.93794,2.96897 -16.49446,5.39813 -16.79228,5.39813 -0.29782,0 -0.54149,-41.78389 -0.54149,-92.85308 z m 77.7675,12.17423 c 22.60741,-4.70009 35.30037,-30.51433 25.18229,-51.21438 -2.69131,-5.50601 -8.29572,-11.8692 -13.21353,-15.00251 -11.27247,-7.18209 -27.87183,-7.2621 -38.89665,-0.18749 -23.12037,14.8363 -22.57903,48.57922 1.00105,62.39808 7.31398,4.28627 17.21854,5.81677 25.92684,4.0063 z"
     id="path84"
     inkscape:label="p" />
</svg>
