<svg width="20" height="15" viewBox="0 0 20 15" fill="none" xmlns="http://www.w3.org/2000/svg">
<path d="M16.9225 1.24659C15.6558 0.665494 14.2844 0.243729 12.8557 4.3112e-05C12.8432 -0.0003511 12.8308 0.00196212 12.8192 0.00682017C12.8077 0.0116782 12.7974 0.0189631 12.7891 0.0281609C12.6176 0.337455 12.4176 0.740474 12.2843 1.04977C10.769 0.824827 9.22803 0.824827 7.71275 1.04977C7.57941 0.731102 7.37941 0.337455 7.19845 0.0281609C7.18893 0.00941586 7.16035 4.3112e-05 7.13178 4.3112e-05C5.70317 0.243729 4.34123 0.665494 3.065 1.24659C3.05548 1.24659 3.04595 1.25596 3.03643 1.26534C0.445883 5.07996 -0.268423 8.79149 0.0839681 12.4655C0.0839681 12.4843 0.0934922 12.503 0.11254 12.5124C1.82687 13.7496 3.47454 14.4994 5.10315 14.9961C5.13173 15.0055 5.1603 14.9961 5.16982 14.9774C5.55078 14.4619 5.89365 13.9183 6.1889 13.3465C6.20795 13.3091 6.1889 13.2716 6.1508 13.2622C5.60793 13.056 5.09363 12.8123 4.58885 12.5311C4.55076 12.5124 4.55076 12.4562 4.57933 12.428C4.68409 12.3531 4.78886 12.2687 4.89362 12.1937C4.91267 12.175 4.94124 12.175 4.96029 12.1844C8.23657 13.6558 11.77 13.6558 15.0082 12.1844C15.0272 12.175 15.0558 12.175 15.0749 12.1937C15.1796 12.2781 15.2844 12.3531 15.3891 12.4374C15.4272 12.4655 15.4272 12.5218 15.3796 12.5405C14.8844 12.8311 14.3606 13.0654 13.8177 13.2716C13.7796 13.2809 13.7701 13.3278 13.7796 13.3559C14.0844 13.9276 14.4272 14.4713 14.7987 14.9867C14.8272 14.9961 14.8558 15.0055 14.8844 14.9961C16.5225 14.4994 18.1702 13.7496 19.8845 12.5124C19.9036 12.503 19.9131 12.4843 19.9131 12.4655C20.3321 8.21977 19.2178 4.53636 16.9606 1.26534C16.9511 1.25596 16.9416 1.24659 16.9225 1.24659ZM6.68415 10.2255C5.70317 10.2255 4.8841 9.3351 4.8841 8.23851C4.8841 7.14192 5.68412 6.25153 6.68415 6.25153C7.6937 6.25153 8.49372 7.1513 8.4842 8.23851C8.4842 9.3351 7.68418 10.2255 6.68415 10.2255ZM13.3224 10.2255C12.3414 10.2255 11.5224 9.3351 11.5224 8.23851C11.5224 7.14192 12.3224 6.25153 13.3224 6.25153C14.332 6.25153 15.132 7.1513 15.1225 8.23851C15.1225 9.3351 14.332 10.2255 13.3224 10.2255Z" fill="#E3E3E3"/>
</svg>
