<svg width="10" height="8" viewBox="0 0 10 8" fill="none" xmlns="http://www.w3.org/2000/svg">
<path d="M7.75696 4.72966V6.28642C7.75696 6.67236 7.61993 7.00236 7.34588 7.27642C7.07182 7.55047 6.74182 7.6875 6.35588 7.6875H2.30831C1.92236 7.6875 1.59236 7.55047 1.31831 7.27642C1.04425 7.00236 0.907227 6.67236 0.907227 6.28642V2.23885C0.907227 1.85291 1.04425 1.52291 1.31831 1.24885C1.59236 0.974797 1.92236 0.83777 2.30831 0.83777H5.73317C5.77858 0.83777 5.81588 0.852365 5.84506 0.881554C5.87425 0.910743 5.88885 0.94804 5.88885 0.993446V1.3048C5.88885 1.3502 5.87425 1.3875 5.84506 1.41669C5.81588 1.44588 5.77858 1.46047 5.73317 1.46047H2.30831C2.09425 1.46047 1.91101 1.53669 1.75858 1.68912C1.60615 1.84155 1.52993 2.0248 1.52993 2.23885V6.28642C1.52993 6.50047 1.60615 6.68372 1.75858 6.83615C1.91101 6.98858 2.09425 7.0648 2.30831 7.0648H6.35588C6.56993 7.0648 6.75317 6.98858 6.90561 6.83615C7.05804 6.68372 7.13425 6.50047 7.13425 6.28642V4.72966C7.13425 4.68426 7.14885 4.64696 7.17804 4.61777C7.20723 4.58858 7.24452 4.57399 7.28993 4.57399H7.60128C7.64669 4.57399 7.68398 4.58858 7.71317 4.61777C7.74236 4.64696 7.75696 4.68426 7.75696 4.72966ZM9.62506 0.526419V3.01723C9.62506 3.10155 9.59425 3.17453 9.53263 3.23615C9.47101 3.29777 9.39804 3.32858 9.31371 3.32858C9.22939 3.32858 9.15642 3.29777 9.09479 3.23615L8.23858 2.37993L5.06669 5.55182C5.03425 5.58426 4.99696 5.60047 4.95479 5.60047C4.91263 5.60047 4.87533 5.58426 4.8429 5.55182L4.28831 4.99723C4.25588 4.9648 4.23966 4.9275 4.23966 4.88534C4.23966 4.84318 4.25588 4.80588 4.28831 4.77345L7.4602 1.60155L6.60398 0.745337C6.54236 0.683716 6.51155 0.610743 6.51155 0.526419C6.51155 0.442094 6.54236 0.369122 6.60398 0.3075C6.66561 0.245878 6.73858 0.215067 6.8229 0.215067H9.31371C9.39804 0.215067 9.47101 0.245878 9.53263 0.3075C9.59425 0.369122 9.62506 0.442094 9.62506 0.526419Z" fill="#2B2B2B"/>
</svg>
